<svg viewBox="0 0 64 64" xmlns="http://www.w3.org/2000/svg" id="Globe-Showing-Europe-Africa--Streamline-Emoji" height="64" width="64">
  <desc>
    Globe Showing Europe Africa Streamline Emoji: https://streamlinehq.com
  </desc>
  <path d="M16.666666666666664 60.666666666666664a15.333333333333332 2 0 1 0 30.666666666666664 0 15.333333333333332 2 0 1 0 -30.666666666666664 0Z" fill="#45413c" opacity=".15" stroke-width="1"></path>
  <path d="M5.773333333333333 30.439999999999998a26.226666666666667 26.226666666666667 0 1 0 52.45333333333333 0 26.226666666666667 26.226666666666667 0 1 0 -52.45333333333333 0Z" fill="#00b8f0" stroke-width="1"></path>
  <path d="M55.120000000000005 18.066666666666666a24.16 24.16 0 1 1 -46.239999999999995 0 26.226666666666667 26.226666666666667 0 1 0 46.239999999999995 0Z" fill="#009fd9" stroke-width="1"></path>
  <path d="M5.773333333333333 30.439999999999998a26.226666666666667 26.226666666666667 0 1 0 52.45333333333333 0 26.226666666666667 26.226666666666667 0 1 0 -52.45333333333333 0Z" fill="none" stroke="#45413c" stroke-linecap="round" stroke-linejoin="round" stroke-width="1"></path>
  <path d="m43.53333333333333 6.92 -5.08 0.9066666666666667a0.7733333333333332 0.7733333333333332 0 0 0 -0.22666666666666668 0.07999999999999999l-6.066666666666666 3.5866666666666664a0.6399999999999999 0.6399999999999999 0 0 1 -0.3466666666666667 0.09333333333333334h-4.359999999999999a0.6533333333333333 0.6533333333333333 0 0 0 -0.37333333333333335 0.12l-7.306666666666667 4.946666666666666a0.6666666666666666 0.6666666666666666 0 0 0 0 1.08l1.3333333333333333 1.0266666666666666a0.6266666666666666 0.6266666666666666 0 0 0 0.6933333333333334 0l4.946666666666666 -2.4a0.6933333333333334 0.6933333333333334 0 0 1 0.6799999999999999 0l1.9333333333333331 1.3333333333333333a0.6533333333333333 0.6533333333333333 0 0 0 0.88 -0.10666666666666666l0.6933333333333334 -0.8266666666666667a0.6666666666666666 0.6666666666666666 0 0 1 0.7999999999999999 -0.15999999999999998l2.786666666666666 1.3333333333333333a0.5466666666666666 0.5466666666666666 0 0 1 0.14666666666666667 0.09333333333333334l1.6933333333333334 1.4933333333333334a0.6399999999999999 0.6399999999999999 0 0 0 0.5466666666666666 0.14666666666666667l1.72 -0.26666666666666666a0.6666666666666666 0.6666666666666666 0 0 1 0.7466666666666667 0.8533333333333333l-0.48 1.5599999999999998a0.6666666666666666 0.6666666666666666 0 0 0 0.18666666666666668 0.6933333333333334l4.253333333333333 3.88a0.6266666666666666 0.6266666666666666 0 0 1 0.21333333333333332 0.41333333333333333l0.36 2.6666666666666665a0.6666666666666666 0.6666666666666666 0 0 0 0.8933333333333333 0.5333333333333333l3.453333333333333 -1.3333333333333333a0.5466666666666666 0.5466666666666666 0 0 0 0.29333333333333333 -0.22666666666666668l1.9733333333333332 -2.6666666666666665A0.6533333333333333 0.6533333333333333 0 0 0 50.666666666666664 25.333333333333332l-0.31999999999999995 -1.72a0.6666666666666666 0.6666666666666666 0 0 1 0.84 -0.7733333333333332l2.5733333333333333 0.7599999999999999a0.6533333333333333 0.6533333333333333 0 0 1 0.4666666666666666 0.4933333333333333l1.1066666666666665 4.933333333333334a0.6666666666666666 0.6666666666666666 0 0 0 1.1733333333333333 0.26666666666666666l1.5733333333333333 -1.9866666666666666A26.21333333333333 26.21333333333333 0 0 0 43.53333333333333 6.92Z" fill="#6dd627" stroke="#45413c" stroke-linecap="round" stroke-linejoin="round" stroke-width="1"></path>
  <path d="m33.89333333333333 6.133333333333333 -2.5466666666666664 -0.72a0.7066666666666667 0.7066666666666667 0 0 0 -0.4933333333333333 0l-3.16 1.76a0.6533333333333333 0.6533333333333333 0 0 0 -0.07999999999999999 1.1199999999999999l0.9733333333333333 0.7066666666666667a0.72 0.72 0 0 0 0.5466666666666666 0.10666666666666666l2.786666666666666 -0.6666666666666666 0.15999999999999998 0 1.9466666666666665 -1.0133333333333332a0.6799999999999999 0.6799999999999999 0 0 0 -0.13333333333333333 -1.2933333333333332Z" fill="#6dd627" stroke="#45413c" stroke-linecap="round" stroke-linejoin="round" stroke-width="1"></path>
  <path d="m37.46666666666667 22.346666666666668 -7.7333333333333325 0a1.5466666666666664 1.5466666666666664 0 0 1 -0.4933333333333333 -0.09333333333333334l-3.0399999999999996 -1.1866666666666665a1.3333333333333333 1.3333333333333333 0 0 0 -0.5866666666666667 -0.09333333333333334l-5.24 0.39999999999999997a2.96 2.96 0 0 0 -1.9066666666666665 0.88l-3.333333333333333 3.4266666666666663a1.3333333333333333 1.3333333333333333 0 0 0 -0.37333333333333335 0.9333333333333332v4a1.3333333333333333 1.3333333333333333 0 0 0 0.5866666666666667 1.0933333333333333l2.5866666666666664 1.76a1.3333333333333333 1.3333333333333333 0 0 0 0.88 0.21333333333333332l5.1866666666666665 -0.4933333333333333a1.3333333333333333 1.3333333333333333 0 0 1 1.3333333333333333 0.6799999999999999l3.413333333333333 6.133333333333333a1.3333333333333333 1.3333333333333333 0 0 1 0.12 0.9866666666666666l-0.6266666666666666 2.4a1.3333333333333333 1.3333333333333333 0 0 0 0.17333333333333334 1.08l3.1199999999999997 4.706666666666666a1.3333333333333333 1.3333333333333333 0 0 0 1.3333333333333333 0.5866666666666667l4.119999999999999 -0.6133333333333333a1.3333333333333333 1.3333333333333333 0 0 0 0.9466666666666665 -0.6266666666666666l3.9066666666666667 -6.48a1.4266666666666667 1.4266666666666667 0 0 0 0.15999999999999998 -0.7066666666666667v-3.6a1.3333333333333333 1.3333333333333333 0 0 1 0.4666666666666666 -1.0133333333333332l3.3200000000000003 -2.88a1.3333333333333333 1.3333333333333333 0 0 0 0 -2.0533333333333332L44 30.439999999999998l-4.56 -3.3866666666666667a1.3333333333333333 1.3333333333333333 0 0 1 -0.5466666666666666 -1.0133333333333332l-0.09333333333333334 -2.413333333333333a1.3333333333333333 1.3333333333333333 0 0 0 -1.3333333333333333 -1.2799999999999998Z" fill="#6dd627" stroke="#45413c" stroke-linecap="round" stroke-linejoin="round" stroke-width="1"></path>
  <path d="m45.8 40.54666666666667 -2.213333333333333 3.2266666666666666a0.6533333333333333 0.6533333333333333 0 0 0 -0.10666666666666666 0.52l0.41333333333333333 2.04a0.6666666666666666 0.6666666666666666 0 0 0 1 0.44l1.88 -1.1199999999999999a0.6666666666666666 0.6666666666666666 0 0 0 0.29333333333333333 -0.41333333333333333l1.0533333333333332 -4.1466666666666665a0.6666666666666666 0.6666666666666666 0 0 0 -0.6399999999999999 -0.84h-1.1199999999999999a0.72 0.72 0 0 0 -0.5599999999999999 0.29333333333333333Z" fill="#6dd627" stroke="#45413c" stroke-linecap="round" stroke-linejoin="round" stroke-width="1"></path>
  <path d="m41.33333333333333 15.613333333333333 -0.7066666666666667 2.1866666666666665a0.6666666666666666 0.6666666666666666 0 0 0 0.5466666666666666 0.8666666666666667l2.986666666666667 0.42666666666666664a0.6933333333333334 0.6933333333333334 0 0 0 0.6133333333333333 -0.2533333333333333l1 -1.3333333333333333a0.6533333333333333 0.6533333333333333 0 0 0 -0.27999999999999997 -1.0133333333333332l-3.2666666666666666 -1.3333333333333333a0.6666666666666666 0.6666666666666666 0 0 0 -0.8933333333333333 0.45333333333333337Z" fill="#00b8f0" stroke="#45413c" stroke-linecap="round" stroke-linejoin="round" stroke-width="1"></path>
</svg>